<svg width="216" height="37" viewBox="0 0 216 37" fill="none" xmlns="http://www.w3.org/2000/svg">
<path d="M0 0.888C0 0.397571 0.397571 0 0.888 0H10.952C14.2215 0 16.872 2.65047 16.872 5.92V16.872H5.92C2.65047 16.872 0 14.2215 0 10.952V0.888Z" fill="#0D7529"/>
<path d="M0 36.112C0 36.6024 0.397571 37 0.888 37H10.952C14.2215 37 16.872 34.3495 16.872 31.08V20.128H5.92C2.65047 20.128 0 22.7785 0 26.048V36.112Z" fill="#0D7529"/>
<path d="M37 0.888C37 0.397571 36.6024 0 36.112 0H26.048C22.7785 0 20.128 2.65047 20.128 5.92V16.872H31.08C34.3495 16.872 37 14.2215 37 10.952V0.888Z" fill="#CC1313"/>
<path d="M37 36.112C37 36.6024 36.6024 37 36.112 37H26.048C22.7785 37 20.128 34.3495 20.128 31.08V20.128H31.08C34.3495 20.128 37 22.7785 37 26.048V36.112Z" fill="#CC1313"/>
<path d="M14.977 3.29703C14.3231 3.29703 13.793 3.82712 13.793 4.48103V13.4267H4.84736C4.19346 13.4267 3.66336 13.9568 3.66336 14.6107V22.023C3.66336 22.6769 4.19346 23.207 4.84736 23.207H13.793V32.1526C13.793 32.8065 14.3231 33.3366 14.977 33.3366H22.3893C23.0432 33.3366 23.5733 32.8065 23.5733 32.1526V23.207H32.519C33.1729 23.207 33.703 22.6769 33.703 22.023V14.6107C33.703 13.9568 33.1729 13.4267 32.519 13.4267H23.5733V4.48103C23.5733 3.82712 23.0432 3.29703 22.3893 3.29703H14.977Z" fill="white"/>
<path d="M54.132 10.8H57.98L63.024 23.956H63.128L68.172 10.8H72.02V29H69.368V13.738H69.264L64.142 27.076H62.01L56.888 13.738H56.784V29H54.132V10.8ZM74.4059 10.8H77.3959L89.3039 29H86.3139L74.4059 10.8ZM80.7239 18.99L82.8819 19.978L76.9539 29H74.1719L80.7239 18.99ZM80.6459 19.614L86.4959 10.8H89.2779L82.8299 20.55L80.6459 19.614ZM91.5852 10.8H98.0072C99.9832 10.8 101.474 11.268 102.479 12.204C103.485 13.1227 103.987 14.492 103.987 16.312V17.482C103.987 19.2153 103.476 20.5413 102.453 21.46C101.448 22.3613 99.9659 22.812 98.0072 22.812H94.1072V20.888H97.3572C98.7612 20.888 99.7839 20.5933 100.425 20.004C101.067 19.3973 101.387 18.4873 101.387 17.274V16.468C101.387 15.168 101.067 14.2233 100.425 13.634C99.7839 13.0447 98.7612 12.75 97.3572 12.75H93.6392L94.2372 12.074V29H91.5852V10.8ZM116.997 20.914C116.997 19.4927 116.711 18.4527 116.139 17.794C115.567 17.118 114.666 16.78 113.435 16.78C112.031 16.78 110.948 17.2653 110.185 18.236C109.422 19.2067 109.041 20.5933 109.041 22.396L107.949 24.216L107.975 22.552C107.975 20.0387 108.53 18.1147 109.639 16.78C110.766 15.428 112.36 14.752 114.423 14.752C116.191 14.752 117.5 15.2287 118.349 16.182C119.198 17.1353 119.623 18.626 119.623 20.654V29H116.997V20.914ZM106.389 9.76H109.041V19.536V29H106.389V9.76ZM131.48 24.268V19.926C131.48 18.834 131.168 18.0367 130.544 17.534C129.92 17.0313 128.932 16.78 127.58 16.78C126.731 16.78 125.89 16.8927 125.058 17.118C124.226 17.3433 123.446 17.6727 122.718 18.106L122.328 16.182C122.831 15.9047 123.411 15.662 124.07 15.454C124.729 15.2287 125.413 15.0553 126.124 14.934C126.852 14.8127 127.545 14.752 128.204 14.752C130.197 14.752 131.688 15.1853 132.676 16.052C133.681 16.9013 134.184 18.1927 134.184 19.926V29H132.234L131.48 24.268ZM126.904 29.208C125.361 29.208 124.148 28.8613 123.264 28.168C122.38 27.4573 121.938 26.4693 121.938 25.204V24.554C121.938 23.2887 122.38 22.3007 123.264 21.59C124.165 20.8793 125.422 20.524 127.034 20.524C128.733 20.524 130.067 20.8707 131.038 21.564C132.026 22.24 132.52 23.202 132.52 24.45V25.152C132.52 26.4173 132.017 27.414 131.012 28.142C130.024 28.8527 128.655 29.208 126.904 29.208ZM127.632 27.648C128.811 27.648 129.738 27.4053 130.414 26.92C131.09 26.4173 131.428 25.7587 131.428 24.944V24.58C131.428 23.7827 131.107 23.1673 130.466 22.734C129.825 22.3007 128.923 22.084 127.762 22.084C126.705 22.084 125.881 22.292 125.292 22.708C124.72 23.1067 124.434 23.7653 124.434 24.684V24.996C124.434 25.8453 124.711 26.504 125.266 26.972C125.838 27.4227 126.627 27.648 127.632 27.648ZM137.139 14.96H139.089L139.791 20.212V29H137.139V14.96ZM139.063 21.434C139.063 19.2327 139.479 17.5687 140.311 16.442C141.16 15.3153 142.382 14.752 143.977 14.752C144.254 14.752 144.54 14.7693 144.835 14.804C145.13 14.8387 145.424 14.8907 145.719 14.96L145.563 17.248C145.026 17.092 144.445 17.014 143.821 17.014C142.504 17.014 141.498 17.4473 140.805 18.314C140.129 19.1633 139.791 20.4547 139.791 22.188L139.063 21.434ZM167.538 20.888C167.538 19.484 167.252 18.4527 166.68 17.794C166.126 17.118 165.259 16.78 164.08 16.78C162.694 16.78 161.628 17.2653 160.882 18.236C160.154 19.2067 159.79 20.5933 159.79 22.396L158.698 24.216V22.552C158.698 20.0387 159.244 18.1147 160.336 16.78C161.446 15.428 163.032 14.752 165.094 14.752C166.828 14.752 168.11 15.2287 168.942 16.182C169.774 17.1353 170.19 18.6173 170.19 20.628V29H167.538V20.888ZM146.712 14.96H148.662L149.364 19.692V29H146.712V14.96ZM157.138 20.888C157.138 19.484 156.852 18.4527 156.28 17.794C155.726 17.118 154.859 16.78 153.68 16.78C152.294 16.78 151.228 17.2653 150.482 18.236C149.737 19.2067 149.364 20.5933 149.364 22.396L148.298 24.216V22.552C148.298 20.0387 148.844 18.1147 149.936 16.78C151.046 15.428 152.623 14.752 154.668 14.752C156.419 14.752 157.71 15.2373 158.542 16.208C159.374 17.1613 159.79 18.6347 159.79 20.628V29H157.138V20.888ZM182.036 24.268V19.926C182.036 18.834 181.724 18.0367 181.1 17.534C180.476 17.0313 179.488 16.78 178.136 16.78C177.286 16.78 176.446 16.8927 175.614 17.118C174.782 17.3433 174.002 17.6727 173.274 18.106L172.884 16.182C173.386 15.9047 173.967 15.662 174.626 15.454C175.284 15.2287 175.969 15.0553 176.68 14.934C177.408 14.8127 178.101 14.752 178.76 14.752C180.753 14.752 182.244 15.1853 183.232 16.052C184.237 16.9013 184.74 18.1927 184.74 19.926V29H182.79L182.036 24.268ZM177.46 29.208C175.917 29.208 174.704 28.8613 173.82 28.168C172.936 27.4573 172.494 26.4693 172.494 25.204V24.554C172.494 23.2887 172.936 22.3007 173.82 21.59C174.721 20.8793 175.978 20.524 177.59 20.524C179.288 20.524 180.623 20.8707 181.594 21.564C182.582 22.24 183.076 23.202 183.076 24.45V25.152C183.076 26.4173 182.573 27.414 181.568 28.142C180.58 28.8527 179.21 29.208 177.46 29.208ZM178.188 27.648C179.366 27.648 180.294 27.4053 180.97 26.92C181.646 26.4173 181.984 25.7587 181.984 24.944V24.58C181.984 23.7827 181.663 23.1673 181.022 22.734C180.38 22.3007 179.479 22.084 178.318 22.084C177.26 22.084 176.437 22.292 175.848 22.708C175.276 23.1067 174.99 23.7653 174.99 24.684V24.996C174.99 25.8453 175.267 26.504 175.822 26.972C176.394 27.4227 177.182 27.648 178.188 27.648ZM193.934 29.208C192.548 29.208 191.352 28.9653 190.346 28.48C189.341 27.9947 188.561 27.2927 188.006 26.374C187.469 25.4553 187.2 24.3633 187.2 23.098V20.862C187.2 19.614 187.478 18.5307 188.032 17.612C188.587 16.6933 189.367 15.9913 190.372 15.506C191.378 15.0033 192.565 14.752 193.934 14.752C195.945 14.752 197.557 15.2113 198.77 16.13C199.984 17.0313 200.668 18.2707 200.824 19.848L198.276 20.056C198.068 18.964 197.609 18.1407 196.898 17.586C196.205 17.014 195.252 16.728 194.038 16.728C192.756 16.728 191.733 17.1007 190.97 17.846C190.225 18.574 189.852 19.5707 189.852 20.836V23.124C189.852 24.4067 190.225 25.412 190.97 26.14C191.716 26.868 192.738 27.232 194.038 27.232C195.234 27.232 196.188 26.946 196.898 26.374C197.609 25.802 198.068 24.9787 198.276 23.904L200.824 24.112C200.668 25.672 199.975 26.9113 198.744 27.83C197.531 28.7487 195.928 29.208 193.934 29.208ZM205.138 33.472L207.166 28.35L206.932 29.806L201.082 14.96H203.734L208.128 26.322H208.232L212.366 14.96H214.992L207.894 33.966L205.138 33.472Z" fill="white"/>
</svg>
