<svg width="22" height="28" viewBox="0 0 22 28" fill="none" xmlns="http://www.w3.org/2000/svg">
<path d="M3.09375 0C1.39734 0 0 1.42275 0 3.15V24.85C0 26.5772 1.39734 28 3.09375 28H18.9062C20.6027 28 22 26.5772 22 24.85V3.15C22 1.42275 20.6027 0 18.9062 0H3.09375ZM3.09375 2.1H18.9062C19.4882 2.1 19.9375 2.55745 19.9375 3.15V24.85C19.9375 25.4425 19.4882 25.9 18.9062 25.9H3.09375C2.51178 25.9 2.0625 25.4425 2.0625 24.85V3.15C2.0625 2.55745 2.51178 2.1 3.09375 2.1ZM5.84375 4.9C5.7071 4.89803 5.57142 4.92374 5.44461 4.97562C5.3178 5.02751 5.20238 5.10454 5.10506 5.20223C5.00774 5.29993 4.93047 5.41635 4.87772 5.54471C4.82498 5.67308 4.79781 5.81085 4.79781 5.95C4.79781 6.08915 4.82498 6.22691 4.87772 6.35528C4.93047 6.48365 5.00774 6.60007 5.10506 6.69777C5.20238 6.79546 5.3178 6.87249 5.44461 6.92438C5.57142 6.97626 5.7071 7.00197 5.84375 7H16.1562C16.2929 7.00197 16.4286 6.97626 16.5554 6.92438C16.6822 6.87249 16.7976 6.79546 16.8949 6.69777C16.9923 6.60007 17.0695 6.48365 17.1223 6.35528C17.175 6.22691 17.2022 6.08915 17.2022 5.95C17.2022 5.81085 17.175 5.67308 17.1223 5.54471C17.0695 5.41635 16.9923 5.29993 16.8949 5.20223C16.7976 5.10454 16.6822 5.02751 16.5554 4.97562C16.4286 4.92374 16.2929 4.89803 16.1562 4.9H5.84375ZM5.84375 11.2C5.57025 11.2 5.30794 11.3106 5.11455 11.5075C4.92115 11.7045 4.8125 11.9715 4.8125 12.25C4.8125 12.5285 4.92115 12.7955 5.11455 12.9925C5.30794 13.1894 5.57025 13.3 5.84375 13.3C6.11725 13.3 6.37956 13.1894 6.57295 12.9925C6.76635 12.7955 6.875 12.5285 6.875 12.25C6.875 11.9715 6.76635 11.7045 6.57295 11.5075C6.37956 11.3106 6.11725 11.2 5.84375 11.2ZM9.96875 11.2C9.8321 11.198 9.69642 11.2237 9.56961 11.2756C9.4428 11.3275 9.32738 11.4045 9.23006 11.5022C9.13274 11.5999 9.05547 11.7163 9.00272 11.8447C8.94997 11.9731 8.92281 12.1108 8.92281 12.25C8.92281 12.3892 8.94997 12.5269 9.00272 12.6553C9.05547 12.7837 9.13274 12.9001 9.23006 12.9978C9.32738 13.0955 9.4428 13.1725 9.56961 13.2244C9.69642 13.2763 9.8321 13.302 9.96875 13.3H16.1562C16.2929 13.302 16.4286 13.2763 16.5554 13.2244C16.6822 13.1725 16.7976 13.0955 16.8949 12.9978C16.9923 12.9001 17.0695 12.7837 17.1223 12.6553C17.175 12.5269 17.2022 12.3892 17.2022 12.25C17.2022 12.1108 17.175 11.9731 17.1223 11.8447C17.0695 11.7163 16.9923 11.5999 16.8949 11.5022C16.7976 11.4045 16.6822 11.3275 16.5554 11.2756C16.4286 11.2237 16.2929 11.198 16.1562 11.2H9.96875ZM5.84375 15.4C5.57025 15.4 5.30794 15.5106 5.11455 15.7075C4.92115 15.9045 4.8125 16.1715 4.8125 16.45C4.8125 16.7285 4.92115 16.9955 5.11455 17.1925C5.30794 17.3894 5.57025 17.5 5.84375 17.5C6.11725 17.5 6.37956 17.3894 6.57295 17.1925C6.76635 16.9955 6.875 16.7285 6.875 16.45C6.875 16.1715 6.76635 15.9045 6.57295 15.7075C6.37956 15.5106 6.11725 15.4 5.84375 15.4ZM9.96875 15.4C9.8321 15.398 9.69642 15.4237 9.56961 15.4756C9.4428 15.5275 9.32738 15.6045 9.23006 15.7022C9.13274 15.7999 9.05547 15.9163 9.00272 16.0447C8.94997 16.1731 8.92281 16.3108 8.92281 16.45C8.92281 16.5892 8.94997 16.7269 9.00272 16.8553C9.05547 16.9837 9.13274 17.1001 9.23006 17.1978C9.32738 17.2955 9.4428 17.3725 9.56961 17.4244C9.69642 17.4763 9.8321 17.502 9.96875 17.5H16.1562C16.2929 17.502 16.4286 17.4763 16.5554 17.4244C16.6822 17.3725 16.7976 17.2955 16.8949 17.1978C16.9923 17.1001 17.0695 16.9837 17.1223 16.8553C17.175 16.7269 17.2022 16.5892 17.2022 16.45C17.2022 16.3108 17.175 16.1731 17.1223 16.0447C17.0695 15.9163 16.9923 15.7999 16.8949 15.7022C16.7976 15.6045 16.6822 15.5275 16.5554 15.4756C16.4286 15.4237 16.2929 15.398 16.1562 15.4H9.96875ZM5.84375 19.6C5.57025 19.6 5.30794 19.7106 5.11455 19.9075C4.92115 20.1045 4.8125 20.3715 4.8125 20.65C4.8125 20.9285 4.92115 21.1955 5.11455 21.3925C5.30794 21.5894 5.57025 21.7 5.84375 21.7C6.11725 21.7 6.37956 21.5894 6.57295 21.3925C6.76635 21.1955 6.875 20.9285 6.875 20.65C6.875 20.3715 6.76635 20.1045 6.57295 19.9075C6.37956 19.7106 6.11725 19.6 5.84375 19.6ZM9.96875 19.6C9.8321 19.598 9.69642 19.6237 9.56961 19.6756C9.4428 19.7275 9.32738 19.8045 9.23006 19.9022C9.13274 19.9999 9.05547 20.1163 9.00272 20.2447C8.94997 20.3731 8.92281 20.5108 8.92281 20.65C8.92281 20.7892 8.94997 20.9269 9.00272 21.0553C9.05547 21.1837 9.13274 21.3001 9.23006 21.3978C9.32738 21.4955 9.4428 21.5725 9.56961 21.6244C9.69642 21.6763 9.8321 21.702 9.96875 21.7H16.1562C16.2929 21.702 16.4286 21.6763 16.5554 21.6244C16.6822 21.5725 16.7976 21.4955 16.8949 21.3978C16.9923 21.3001 17.0695 21.1837 17.1223 21.0553C17.175 20.9269 17.2022 20.7892 17.2022 20.65C17.2022 20.5108 17.175 20.3731 17.1223 20.2447C17.0695 20.1163 16.9923 19.9999 16.8949 19.9022C16.7976 19.8045 16.6822 19.7275 16.5554 19.6756C16.4286 19.6237 16.2929 19.598 16.1562 19.6H9.96875Z" fill="currentColor"/>
</svg>
