<svg width="40" height="40" viewBox="0 0 40 40" fill="none" xmlns="http://www.w3.org/2000/svg">
<rect width="40" height="40" rx="20" fill="#D8E28C"/>
<path d="M18.79 21.928C18.778 21.856 18.772 21.784 18.772 21.712C18.772 21.64 18.772 21.574 18.772 21.514C18.772 21.094 18.844 20.728 18.988 20.416C19.132 20.104 19.318 19.822 19.546 19.57C19.786 19.306 20.032 19.06 20.284 18.832C20.548 18.592 20.806 18.346 21.058 18.094C21.226 17.926 21.376 17.752 21.508 17.572C21.64 17.38 21.742 17.182 21.814 16.978C21.886 16.762 21.922 16.558 21.922 16.366C21.922 16.018 21.838 15.724 21.67 15.484C21.514 15.232 21.292 15.046 21.004 14.926C20.728 14.794 20.398 14.728 20.014 14.728C19.69 14.728 19.372 14.776 19.06 14.872C18.76 14.968 18.502 15.118 18.286 15.322C18.082 15.526 17.95 15.79 17.89 16.114H16C16.048 15.574 16.186 15.106 16.414 14.71C16.654 14.314 16.96 13.99 17.332 13.738C17.704 13.486 18.118 13.3 18.574 13.18C19.042 13.06 19.516 13 19.996 13C20.656 13 21.274 13.114 21.85 13.342C22.438 13.558 22.912 13.906 23.272 14.386C23.644 14.866 23.83 15.49 23.83 16.258C23.83 16.654 23.77 17.014 23.65 17.338C23.542 17.662 23.38 17.968 23.164 18.256C22.96 18.544 22.72 18.826 22.444 19.102C22.168 19.402 21.892 19.672 21.616 19.912C21.34 20.152 21.112 20.41 20.932 20.686C20.752 20.962 20.656 21.31 20.644 21.73C20.644 21.766 20.638 21.802 20.626 21.838C20.626 21.862 20.626 21.892 20.626 21.928H18.79ZM19.69 26.014C19.354 26.014 19.066 25.906 18.826 25.69C18.586 25.462 18.466 25.156 18.466 24.772C18.466 24.388 18.586 24.088 18.826 23.872C19.066 23.644 19.354 23.53 19.69 23.53C20.038 23.53 20.332 23.644 20.572 23.872C20.812 24.088 20.932 24.388 20.932 24.772C20.932 25.156 20.812 25.462 20.572 25.69C20.332 25.906 20.038 26.014 19.69 26.014Z" fill="white"/>
</svg>
