<svg width="29" height="28" viewBox="0 0 29 28" fill="none" xmlns="http://www.w3.org/2000/svg">
<path d="M11.771 0C5.56 0 0.5 5.06 0.5 11.271C0.5 17.482 5.56 22.542 11.771 22.542C14.4576 22.542 16.9274 21.5929 18.867 20.0157L26.4928 27.6415C26.6002 27.7534 26.7289 27.8428 26.8713 27.9043C27.0137 27.9659 27.167 27.9984 27.3221 27.9999C27.4772 28.0015 27.6311 27.9721 27.7747 27.9135C27.9183 27.8549 28.0488 27.7682 28.1585 27.6585C28.2682 27.5488 28.3549 27.4183 28.4135 27.2747C28.4721 27.1311 28.5015 26.9772 28.4999 26.8221C28.4984 26.667 28.4659 26.5137 28.4043 26.3713C28.3428 26.2289 28.2534 26.1002 28.1415 25.9928L20.5157 18.367C22.0929 16.4274 23.042 13.9576 23.042 11.271C23.042 5.06 17.982 0 11.771 0ZM11.771 2.33193C16.7217 2.33193 20.71 6.32027 20.71 11.271C20.71 13.6827 19.7588 15.8615 18.2157 17.4667C18.1205 17.5366 18.0366 17.6205 17.9667 17.7157C16.3615 19.2588 14.1827 20.21 11.771 20.21C6.82026 20.21 2.83193 16.2217 2.83193 11.271C2.83193 6.32027 6.82026 2.33193 11.771 2.33193Z" fill="currentColor"/>
</svg>
